<?xml version="1.0" encoding="UTF-8"?>
<svg version="1.1" xmlns="http://www.w3.org/2000/svg" width="1794" height="707">
<path d="M0 0 C0.33 0.66 0.66 1.32 1 2 C0.1794196 4.34785214 -0.71042798 6.57826555 -1.69921875 8.85546875 C-2.15235947 9.92445152 -2.15235947 9.92445152 -2.61465454 11.01502991 C-3.63160967 13.40904583 -4.65960175 15.79816443 -5.6875 18.1875 C-6.40786855 19.87762155 -7.12749848 21.56805809 -7.84643555 23.25878906 C-9.39827164 26.90465605 -10.95475561 30.54849094 -12.51464844 34.19091797 C-14.6294933 39.13054498 -16.73559818 44.07383432 -18.83746338 49.01899719 C-19.7007966 51.05005542 -20.56485069 53.08080739 -21.42962646 55.11125183 C-23.59459611 60.19629166 -25.74888487 65.28539356 -27.8828125 70.38354492 C-34.78180741 86.81261352 -34.78180741 86.81261352 -38.6796875 94.109375 C-46.2406389 108.59470002 -46.68566578 121.22844646 -46.76953125 137.3125 C-46.79616698 139.51760174 -46.82467541 141.72268169 -46.85510254 143.92773438 C-46.92499862 149.28509624 -46.97175762 154.64226499 -47 160 C-62.69925798 161.04789486 -78.3988125 162.09122263 -94.09872818 163.12921143 C-101.38953062 163.61134296 -108.68023077 164.09493174 -115.97070312 164.58203125 C-122.329913 165.00690637 -128.68930264 165.42896569 -135.04891753 165.84773636 C-138.41186282 166.06927734 -141.77470588 166.29216501 -145.13733673 166.51843262 C-148.90414981 166.771184 -152.67126083 167.01895771 -156.43847656 167.265625 C-157.53612335 167.34043091 -158.63377014 167.41523682 -159.76467896 167.49230957 C-166.85288766 167.94975907 -173.89774661 168.08398205 -181 168 C-180.86995575 169.20792709 -180.7399115 170.41585419 -180.60592651 171.66038513 C-175.50742679 219.13568937 -170.80836486 266.6507417 -166.10558009 314.16654909 C-165.2248429 323.06185183 -164.33979424 331.95672214 -163.45393288 340.85151583 C-162.58903693 349.53779307 -161.72715042 358.22436552 -160.86760414 366.91117376 C-160.35868629 372.05388843 -159.84856658 377.19647657 -159.33533096 382.33876228 C-158.85738324 387.12843177 -158.38318251 391.91845757 -157.91186714 396.7087841 C-157.73907754 398.45845789 -157.5649565 400.2080008 -157.38938332 401.95739746 C-157.14959351 404.34874218 -156.91467803 406.74051893 -156.68093872 409.13246155 C-156.61110342 409.81734006 -156.54126812 410.50221858 -156.4693166 411.20785099 C-156.02458338 415.83130815 -155.94373445 420.36180893 -156 425 C-156.33 425 -156.66 425 -157 425 C-172.26544394 345.96785039 -187.5299163 266.93550951 -207.25842285 164.5993042 C-207.39060188 163.91350721 -207.5227809 163.22771023 -207.65896535 162.52113152 C-207.79078356 161.83720644 -207.92260176 161.15328136 -208.05841446 160.44863129 C-208.25559783 159.42556712 -208.25559783 159.42556712 -208.4567647 158.38183498 C-208.7211967 157.00985711 -208.98562739 155.63787899 -209.25005674 154.26590061 C-211.20537562 144.12094498 -213.16171898 133.97618729 -215.11865234 123.83154297 C-217.30653116 112.48967207 -219.49310334 101.14755003 -221.67793083 89.8050909 C-222.78429201 84.06160547 -223.89123765 78.31823434 -224.99975586 72.57516479 C-226.00870561 67.34782213 -227.01595813 62.12015554 -228.02179909 56.89221382 C-228.38638215 54.9988937 -228.75160198 53.10569607 -229.1174984 51.21262932 C-229.61087932 48.65949273 -230.10200765 46.10593331 -230.5925293 43.55224609 C-230.73719635 42.80654075 -230.8818634 42.0608354 -231.03091431 41.29253292 C-232 36.22831939 -232 36.22831939 -232 34 C-224.05802314 35.27363011 -216.17202445 36.71971633 -208.29541016 38.34741211 C-207.19046204 38.57387421 -206.08551392 38.8003363 -204.94708252 39.03366089 C-201.31064696 39.77948289 -197.67485979 40.52841705 -194.0390625 41.27734375 C-191.45034906 41.80884466 -188.86159845 42.34016115 -186.27279663 42.87123108 C-180.1322909 44.13129352 -173.99223541 45.39353522 -167.85235536 46.6566425 C-160.41101498 48.1874163 -152.96921065 49.71592885 -145.52734375 51.24414062 C-144.86619552 51.37991052 -144.20504729 51.51568041 -143.52386427 51.65556455 C-140.85561071 52.20349754 -138.18735617 52.75142578 -135.51909423 53.29931796 C-132.20121682 53.98061067 -128.88336273 54.66201659 -125.56555939 55.34366989 C-98.38364333 60.9282744 -71.19349999 66.47207456 -44 72 C-43.50422455 71.18314728 -43.0084491 70.36629456 -42.49765015 69.52468872 C-38.49117587 62.92365977 -34.48415437 56.32296416 -30.47573853 49.72311401 C-28.66025796 46.73390093 -26.84496261 43.74457647 -25.03027344 40.75488281 C-16.75703548 27.12602222 -8.41555698 13.54147317 0 0 Z " fill="#003ECF" transform="translate(954,4)"/>
<path d="M0 0 C0.33 0 0.66 0 1 0 C0.34460693 13.00127944 -0.75785253 25.93631883 -1.99365234 38.89404297 C-2.19604852 41.03941792 -2.39821577 43.18481448 -2.60017395 45.33023071 C-3.2576117 52.30131139 -3.92154458 59.27176683 -4.5859375 66.2421875 C-4.8152846 68.65204701 -5.04459985 71.06190954 -5.27388382 73.47177505 C-6.22701022 83.48536246 -7.18168644 93.49879968 -8.14087486 103.5118084 C-9.51261288 117.83145266 -10.87503065 132.15191302 -12.22445905 146.47367752 C-13.17648569 156.57000549 -14.13872992 166.66532744 -15.10871279 176.75994599 C-15.68716645 182.78259888 -16.26112871 188.80560161 -16.82426071 194.8297081 C-17.35266385 200.47968813 -17.89366105 206.1283182 -18.44454002 211.77614975 C-18.64472527 213.85142867 -18.84028581 215.92715949 -19.03095818 218.00333405 C-19.29120005 220.82941514 -19.56780954 223.65341881 -19.84872437 226.47750854 C-19.92101364 227.30540071 -19.99330291 228.13329288 -20.06778276 228.98627269 C-20.64773864 234.56267742 -20.64773864 234.56267742 -22.34135973 236.66526043 C-24.96959917 238.78025501 -28.06779113 239.31404489 -31.28540039 240.0847168 C-32.02389725 240.27047272 -32.7623941 240.45622864 -33.52326965 240.64761353 C-35.96231683 241.25835608 -38.40480046 241.85390967 -40.84765625 242.44921875 C-42.54272905 242.87005884 -44.23758635 243.29176776 -45.93223572 243.71430969 C-49.48233353 244.59725511 -53.03402104 245.47336138 -56.5871582 246.34399414 C-61.1482261 247.46162232 -65.70643271 248.5904039 -70.2636652 249.72355938 C-74.60329599 250.80228436 -78.94411043 251.87620443 -83.28515625 252.94921875 C-84.53264995 253.25797723 -84.53264995 253.25797723 -85.80534554 253.57297325 C-88.1509272 254.15242428 -90.49730052 254.72853785 -92.84399414 255.3034668 C-93.8921228 255.56289314 -93.8921228 255.56289314 -94.96142578 255.82756042 C-99.76995394 257 -99.76995394 257 -102 257 C-102.16122849 257.68193924 -102.32245697 258.36387848 -102.48857117 259.06648254 C-104.6004121 267.7721966 -107.14521913 276.32550327 -109.76953125 284.88671875 C-110.24395633 286.44268136 -110.71808439 287.99873456 -111.19194031 289.55487061 C-112.20299621 292.87341273 -113.21577811 296.19142083 -114.22998047 299.50900269 C-116.65002433 307.42581764 -119.06094547 315.34541267 -121.47254562 323.26480293 C-122.30541693 325.99959661 -123.13862487 328.73428759 -123.97183228 331.46897888 C-129.60754001 349.97150808 -135.19348127 368.48896644 -140.76910019 387.00967789 C-141.50144677 389.44230571 -142.23393528 391.87489077 -142.96646118 394.3074646 C-145.64559201 403.20459009 -148.32355752 412.10206538 -151 421 C-151.33 421 -151.66 421 -152 421 C-151.44289066 413.05595654 -149.94326361 405.46014966 -148.20849609 397.69775391 C-147.92045752 396.38896747 -147.63299338 395.08005449 -147.34605408 393.77102661 C-146.73112855 390.96918936 -146.11315271 388.16804902 -145.49302292 385.36735916 C-144.50909245 380.91888698 -143.53816819 376.46763731 -142.56997681 372.01571655 C-142.23663612 370.4836282 -141.90329067 368.95154088 -141.56994057 367.41945457 C-141.40308353 366.65251235 -141.23622649 365.88557012 -141.06431317 365.09538722 C-138.81226454 354.74832406 -136.55038902 344.40353799 -134.25976562 334.06494141 C-132.70975605 327.068578 -131.17836147 320.06840793 -129.66719687 313.06354845 C-128.86983408 309.37106322 -128.06367166 305.68105299 -127.23438644 301.99559402 C-123.84488441 286.90732284 -120.8760987 272.64026179 -122.75137329 257.1278801 C-123.14679689 253.74363387 -123.34410848 250.35263443 -123.57250977 246.953125 C-123.77619147 244.38520774 -123.98253142 241.81750007 -124.19140625 239.25 C-124.30246473 237.85004688 -124.41312663 236.45006226 -124.52342224 235.05004883 C-124.98297079 229.22546565 -125.44949244 223.40144901 -125.91870117 217.57763672 C-126.2091348 213.96926256 -126.49490594 210.36054168 -126.77802849 206.75158691 C-126.93621777 204.75305041 -127.09968015 202.75493346 -127.26332092 200.75683594 C-127.36019699 199.52094727 -127.45707306 198.28505859 -127.55688477 197.01171875 C-127.64269302 195.94397217 -127.72850128 194.87622559 -127.81690979 193.77612305 C-128.071603 188.52323217 -128 183.25906181 -128 178 C-98.3 176.35 -68.6 174.7 -38 173 C-34.29109155 156.16679319 -30.58252025 139.33351256 -26.875 122.5 C-26.60193024 121.26016483 -26.32886047 120.02032967 -26.04751587 118.74292374 C-19.18019143 87.56175327 -12.3170391 56.3797083 -5.5 25.1875 C-5.27970249 24.17950851 -5.27970249 24.17950851 -5.05495453 23.15115356 C-3.36857631 15.43440641 -1.68339706 7.71739805 0 0 Z " fill="#003ECF" transform="translate(958,4)"/>
<path d="M0 0 C7.50643281 6.55026933 12.87015346 13.69898953 17.4375 22.5 C17.76322998 23.11496338 18.08895996 23.72992676 18.42456055 24.36352539 C24.32018022 36.3341633 24.54518544 48.78203291 24.41796875 61.80078125 C24.41235922 63.50855635 24.40809556 65.21633635 24.40510559 66.92411804 C24.39376345 71.37435723 24.36439062 75.82429305 24.33099365 80.27441406 C24.30006075 84.83329161 24.28655111 89.39221917 24.27148438 93.95117188 C24.23950835 102.86343459 24.18683017 111.77539436 24.125 120.6875 C18.515 120.6875 12.905 120.6875 7.125 120.6875 C6.795 111.7775 6.465 102.8675 6.125 93.6875 C2.165 98.6375 2.165 98.6375 -1.875 103.6875 C-14.58583485 115.07033718 -30.78461342 120.48156259 -47.83984375 119.9765625 C-67.02949395 118.14897677 -82.29622751 110.36273457 -94.875 95.6875 C-107.74456922 78.45888314 -110.84016411 59.89161853 -108.4453125 38.92578125 C-105.08296206 22.05176332 -94.66745542 6.81775788 -80.875 -3.3125 C-55.37703676 -19.17174878 -24.01473258 -18.74077888 0 0 Z M-79.84375 17.25390625 C-90.62321354 30.16853276 -94.26763775 44.16497062 -92.875 60.6875 C-90.70057358 74.65055232 -83.66526917 86.51552705 -72.4375 94.875 C-60.04805069 103.54929558 -48.82027142 105.49229133 -33.82421875 103.2265625 C-20.16860086 99.52408237 -10.28803796 90.33452311 -2.875 78.6875 C5.63233574 63.51960226 7.46703909 48.74315637 3.22265625 31.765625 C1.39586673 26.6428131 -1.33558016 22.77411 -4.875 18.6875 C-5.52339844 17.90632812 -6.17179687 17.12515625 -6.83984375 16.3203125 C-15.24179046 7.02653905 -26.97939109 1.51086345 -39.41015625 0.4765625 C-55.25184467 -0.1160762 -69.05057579 5.65906511 -79.84375 17.25390625 Z " fill="#003ECF" transform="translate(391.875,544.3125)"/>
<path d="M0 0 C13.74489235 11.25680112 22.8628065 25.80904727 25.3125 43.625 C25.3125 47.585 25.3125 51.545 25.3125 55.625 C-12.6375 55.625 -50.5875 55.625 -89.6875 55.625 C-86.5228693 73.55790732 -82.65211113 87.848408 -67.78125 99.0625 C-56.00576106 106.91282596 -41.93447018 108.2629463 -28.25 105.5625 C-14.85856256 102.16635421 -4.65018627 94.94073663 3.1875 83.8125 C3.68507813 83.11962891 4.18265625 82.42675781 4.6953125 81.71289062 C5.90810836 80.02197331 7.11131508 78.32418508 8.3125 76.625 C12.6025 78.935 16.8925 81.245 21.3125 83.625 C14.09158115 99.69736777 2.62906299 110.85645731 -13.6875 117.625 C-30.53729849 123.67169946 -50.75564912 123.73703795 -67.4375 116.875 C-84.74808681 108.28502957 -95.9161226 95.41493908 -102.7578125 77.390625 C-108.74830743 59.5701611 -106.79991779 40.11966414 -98.875 23.25 C-89.73247638 6.17633714 -75.89968179 -5.27062791 -57.50390625 -11.0625 C-38.0431835 -15.91924883 -16.00938726 -12.00704045 0 0 Z M-76.5 17.3125 C-82.40215014 24.61924837 -85.42797367 32.58689468 -87.6875 41.625 C-56.0075 41.625 -24.3275 41.625 8.3125 41.625 C4.92136189 28.06044757 -0.20071572 18.17212157 -11.859375 10.30078125 C-32.49189527 -1.92484195 -59.40706775 -0.67809171 -76.5 17.3125 Z " fill="#003ECF" transform="translate(231.6875,542.375)"/>
<path d="M0 0 C5.28 0 10.56 0 16 0 C16 23.76 16 47.52 16 72 C16.66 72 17.32 72 18 72 C18.226875 71.46375 18.45375 70.9275 18.6875 70.375 C25.11294779 58.74799925 38.02207411 51.01879924 50.453125 47.2578125 C63.15000277 44.26790257 76.7006387 45.24341039 88.1875 51.625 C99.79353294 59.22574067 106.70757177 69.0353189 109.64575195 82.63110352 C111.54820374 92.13581742 111.37754672 101.62392661 111.29296875 111.27734375 C111.2873586 113.18404299 111.28309523 115.09074663 111.28010559 116.99745178 C111.26876841 121.96386101 111.23939995 126.92999802 111.20599365 131.89630127 C111.17504988 136.98486654 111.16154883 142.07347671 111.14648438 147.16210938 C111.1145172 157.10819112 111.06345923 167.05407273 111 177 C106.05 177 101.1 177 96 177 C95.970271 173.52025635 95.970271 173.52025635 95.93994141 169.97021484 C95.87265374 162.25485339 95.79502299 154.53962004 95.71247292 146.82440758 C95.66279597 142.15249908 95.61646656 137.48061012 95.578125 132.80859375 C95.54090693 128.28917288 95.4944549 123.76992798 95.44193649 119.25065994 C95.42358441 117.53737133 95.40840796 115.82404529 95.39665604 114.1106987 C95.2436334 90.07950614 95.2436334 90.07950614 84.625 69 C74.98535145 61.65550587 64.73809984 61.04375524 53 62 C41.44395433 64.38198821 31.81852996 71.51658606 25 81 C16.66526235 95.65983043 16.88782955 111.73559393 16.68359375 128.171875 C16.66296122 129.58962522 16.64196343 131.00737016 16.62062073 132.42510986 C16.56604893 136.11401024 16.51636024 139.80295995 16.46777344 143.49194336 C16.41707709 147.27331813 16.36164518 151.05462337 16.30664062 154.8359375 C16.1998558 162.22390049 16.09868115 169.61192351 16 177 C10.72 177 5.44 177 0 177 C0 118.59 0 60.18 0 0 Z " fill="#003ECF" transform="translate(673,487)"/>
<path d="M0 0 C13.48747206 10.69231555 25.76678744 25.05358559 28.7265625 42.58203125 C28.86191406 43.77892578 28.86191406 43.77892578 29 45 C29.13148438 46.11761719 29.26296875 47.23523438 29.3984375 48.38671875 C31.15294719 67.35491797 27.00682443 84.96657969 15 100 C3.25527554 113.76274774 -10.79075712 121.89511478 -29 124 C-47.44916072 125.02495337 -65.00583447 122.17333997 -79.375 109.625 C-80.93957777 108.1065901 -82.48231348 106.56527948 -84 105 C-84.71929688 104.278125 -85.43859375 103.55625 -86.1796875 102.8125 C-100.20379296 87.99457725 -103.5229165 70.6907629 -103.2734375 51.046875 C-102.70879445 32.92239231 -93.75124807 18.29907616 -81 6 C-59.23092902 -13.94567871 -24.69288584 -16.00894478 0 0 Z M-73 20 C-85.43430608 34.73429333 -88.33062555 49.2806003 -87 68 C-84.60166229 80.97843321 -76.49719465 93.58711611 -65.75 101.25 C-53.74503 108.79421916 -39.7153086 110.69259228 -25.859375 108.50390625 C-11.6432177 104.90924933 -1.06116824 97.4235324 6.49609375 84.81640625 C13.72534141 71.277997 15.66741683 55.78268834 11.375 40.875 C6.44313585 27.49582528 -2.25146471 16.37600029 -15.125 9.9375 C-34.57164924 1.10195719 -57.93348178 3.81485398 -73 20 Z " fill="#003ECF" transform="translate(1475,540)"/>
<path d="M0 0 C14.29440339 12.24701648 23.26645075 28.58630854 24.95361328 47.46972656 C26.20974884 66.69445362 20.82982868 84.23769926 8.1015625 98.92578125 C-4.08589388 112.156124 -19.26926389 119.71888057 -37.38671875 120.7265625 C-55.69351517 121.35597509 -73.06234272 116.57408274 -86.7890625 104.078125 C-100.72848675 90.69535762 -108.11909044 73.29440433 -108.6015625 54.015625 C-108.08102295 34.63553704 -101.39607185 17.69000913 -87.74023438 3.87548828 C-64.23406188 -18.21273123 -25.28515463 -20.56424056 0 0 Z M-79.84423828 18.84814453 C-89.15666251 29.66055656 -92.9164668 43.06268458 -92.5078125 57.1953125 C-91.21157744 72.21003525 -85.29221916 84.20908898 -74.2265625 94.453125 C-62.15592371 104.04349555 -48.33122218 107.14554419 -33.2265625 105.453125 C-20.51915155 103.01308277 -9.18629801 96.77077139 -1.2265625 86.453125 C7.78720432 71.96131409 11.39312595 57.24256535 7.6484375 40.203125 C3.46613632 25.75869591 -6.10717262 13.81564827 -19.2265625 6.453125 C-40.9250212 -3.24318897 -63.60167507 1.6043647 -79.84423828 18.84814453 Z " fill="#003ECF" transform="translate(1115.2265625,543.546875)"/>
<path d="M0 0 C4.95 0 9.9 0 15 0 C15 23.76 15 47.52 15 72 C18.5748696 68.43296157 18.5748696 68.43296157 22.0703125 64.7890625 C32.38457836 53.92574827 44.88029252 46.81847375 60.0078125 45.796875 C73.81853703 45.58919493 85.84331562 48.70903337 96.35546875 58.10546875 C111.92008418 74.60454515 111.16769125 97.51675853 111.09765625 118.796875 C111.09578681 120.48366249 111.0943654 122.17045054 111.09336853 123.85723877 C111.08958474 128.2564041 111.07979073 132.65553543 111.06866455 137.0546875 C111.05836053 141.55989116 111.05385181 146.06510041 111.04882812 150.5703125 C111.03816396 159.38022553 111.02060164 168.19010459 111 177 C105.72 177 100.44 177 95 177 C94.970271 173.41366699 94.970271 173.41366699 94.93994141 169.75488281 C94.8727471 161.81599112 94.79511347 153.87722553 94.71247292 145.93848038 C94.66273056 141.12975139 94.6164003 136.32104205 94.578125 131.51220703 C94.54099136 126.86311974 94.49455906 122.21420632 94.44193649 117.56526947 C94.42354053 115.80008778 94.40837928 114.03486904 94.39665604 112.26963043 C94.29609802 97.63873322 94.02967635 83.39920137 85.875 70.6875 C77.37790393 62.74456237 67.73324307 61.53510683 56.58984375 61.73046875 C46.06985784 62.16514352 37.71816361 67.03026437 30 74 C19.48266101 85.64671767 17.07332685 98.12609013 16.47265625 113.25390625 C16.43133072 114.25063858 16.39000519 115.24737091 16.34742737 116.27430725 C15.8663059 128.49124834 15.65174059 140.7135438 15.4375 152.9375 C15.39414188 155.28971838 15.35052329 157.64193197 15.30664062 159.99414062 C15.20144006 165.66271003 15.09970906 171.33133145 15 177 C10.05 177 5.1 177 0 177 C0 118.59 0 60.18 0 0 Z " fill="#003ECF" transform="translate(1536,487)"/>
<path d="M0 0 C1.41106809 1.02093436 2.80810527 2.06166076 4.1875 3.125 C4.77917969 3.56457031 5.37085937 4.00414062 5.98046875 4.45703125 C11.56625849 8.89242951 15.80606067 14.54139704 20.1875 20.125 C17.11027398 23.33340439 14.11611134 26.03648824 10.375 28.4375 C9.18970703 29.20513672 9.18970703 29.20513672 7.98046875 29.98828125 C7.38878906 30.36339844 6.79710938 30.73851562 6.1875 31.125 C5.40246094 30.24457031 4.61742188 29.36414063 3.80859375 28.45703125 C2.74775118 27.28353283 1.68653306 26.11037384 0.625 24.9375 C0.11130859 24.35935547 -0.40238281 23.78121094 -0.93164062 23.18554688 C-7.00815429 16.50515607 -13.06265754 11.80102428 -22.34765625 10.87109375 C-29.89309979 10.54210817 -36.77073517 11.74431058 -42.69921875 16.703125 C-47.06243471 21.39384627 -48.52475762 26.07493077 -49.125 32.4375 C-47.99560499 45.76436108 -40.99648031 52.67881364 -31.125 61.125 C-26.21424342 65.11733264 -21.13349884 68.8074758 -15.95874023 72.44750977 C-10.34752497 76.40923393 -5.02252486 80.6464686 0.1875 85.125 C0.69055664 85.55425781 1.19361328 85.98351562 1.71191406 86.42578125 C13.32622216 96.40761385 21.45477008 106.24563633 23.56640625 121.94140625 C24.07389922 133.18810524 19.99216051 143.35573935 13.1875 152.125 C12.445 153.15625 11.7025 154.1875 10.9375 155.25 C4.17935896 162.31532926 -3.50599667 166.35980892 -12.8125 169.125 C-13.41191406 169.31835938 -14.01132812 169.51171875 -14.62890625 169.7109375 C-28.42257634 172.32655294 -42.997507 169.6096954 -54.8125 162.125 C-64.66775888 154.54980101 -72.24560813 145.20525593 -77.8125 134.125 C-75.6907637 132.78621428 -73.56544812 131.45384524 -71.4375 130.125 C-70.83421875 129.7434375 -70.2309375 129.361875 -69.609375 128.96875 C-65.0390625 126.125 -65.0390625 126.125 -62.8125 126.125 C-61.68263678 127.74675618 -60.63409687 129.42546843 -59.625 131.125 C-53.20726175 141.43307855 -45.90015294 149.7841914 -33.8125 153.125 C-23.13096347 154.30421969 -12.8989919 152.31731741 -4.30859375 145.6015625 C1.57494023 139.79483706 4.16807362 132.46821968 4.5625 124.3125 C4.31730189 114.79304397 -0.27004332 106.82786717 -6.8125 100.125 C-12.90523856 94.84022947 -19.32827478 90.32870313 -26.25 86.1875 C-41.90591579 76.77508798 -57.97718167 64.51935487 -64.8125 47.125 C-65.493125 45.4234375 -65.493125 45.4234375 -66.1875 43.6875 C-68.12951185 32.61803246 -67.06815505 21.69200795 -61.4921875 11.77734375 C-47.35241658 -8.27331501 -20.57785437 -13.1421591 0 0 Z " fill="#003ECF" transform="translate(77.8125,494.875)"/>
<path d="M0 0 C10.73417083 8.27176639 14.39940502 20.76250251 16.29017639 33.60908508 C17.31008657 42.35357099 17.12917149 51.13345044 17.1015625 59.921875 C17.09969422 61.67878173 17.09827225 63.43568899 17.09727478 65.19259644 C17.0934819 69.78578159 17.08367968 74.37893443 17.0725708 78.97210693 C17.06228676 83.67150434 17.05776227 88.37090705 17.05273438 93.0703125 C17.04205409 102.26824555 17.02448395 111.46614626 17.00390625 120.6640625 C11.72390625 120.6640625 6.44390625 120.6640625 1.00390625 120.6640625 C0.98932373 118.22306152 0.97474121 115.78206055 0.9597168 113.26708984 C0.90911381 105.15255776 0.84247537 97.03821243 0.76819134 88.92386436 C0.72368751 84.00980685 0.68438875 79.09582843 0.6574707 74.18164062 C0.63123653 69.42874382 0.5906961 64.67615479 0.54071999 59.92345047 C0.52418602 58.12085457 0.51258871 56.31820562 0.50629234 54.51554489 C0.72401324 33.817332 0.72401324 33.817332 -7.99609375 15.6640625 C-15.97433355 7.89577638 -27.37819762 6.65593816 -38.06787109 6.66601562 C-49.13551856 7.08055416 -59.49081168 10.17636645 -68.09375 17.43359375 C-77.7326818 27.9251092 -76.9559814 43.67402375 -77.515625 57.07421875 C-77.5575145 58.05967178 -77.59940399 59.04512482 -77.64256287 60.06044006 C-78.1339921 72.23654128 -78.34506183 84.41804126 -78.55859375 96.6015625 C-78.60195187 98.95378088 -78.64557046 101.30599447 -78.68945312 103.65820312 C-78.79465369 109.32677253 -78.89638469 114.99539395 -78.99609375 120.6640625 C-83.94609375 120.6640625 -88.89609375 120.6640625 -93.99609375 120.6640625 C-94.19658501 111.76976471 -94.38199257 102.87547437 -94.54268169 93.98036671 C-94.61790464 89.84758387 -94.69908882 85.71511847 -94.79516602 81.58276367 C-96.11610669 24.15674609 -96.11610669 24.15674609 -82.01171875 7.69140625 C-60.4229997 -14.02282861 -25.29052905 -16.92634234 0 0 Z " fill="#003ECF" transform="translate(1776.99609375,543.3359375)"/>
<path d="M0 0 C31.35 0 62.7 0 95 0 C95 5.28 95 10.56 95 16 C68.93 16 42.86 16 16 16 C16 34.15 16 52.3 16 71 C31.51 71 47.02 71 63 71 C63 76.28 63 81.56 63 87 C47.82 87.33 32.64 87.66 17 88 C16.67 116.05 16.34 144.1 16 173 C10.72 173 5.44 173 0 173 C0 115.91 0 58.82 0 0 Z " fill="#003ECF" transform="translate(888,491)"/>
<path d="M0 0 C4.83011984 4.0636876 8.25656281 8.8454558 11.5625 14.1875 C7.54995115 17.69848025 3.35266959 19.95287994 -1.4375 22.1875 C-2.5203125 20.7334375 -2.5203125 20.7334375 -3.625 19.25 C-10.8741737 10.83822297 -20.83266727 5.16181035 -31.4375 2.1875 C-32.04029785 2.01460449 -32.6430957 1.84170898 -33.26416016 1.66357422 C-47.79799477 -1.52008984 -64.4701895 0.50154103 -77.3203125 7.83203125 C-89.83304957 16.1053783 -97.48607125 26.92771902 -100.99609375 41.5078125 C-103.54138232 56.95974134 -100.0083879 71.20634939 -91.4375 84.1875 C-82.46771367 95.3040441 -70.76425711 100.93438936 -57 103.9375 C-39.97354296 105.13233909 -23.44633817 102.94463824 -10.09765625 91.35546875 C-7.13962683 88.70375173 -4.27345066 85.96900833 -1.4375 83.1875 C1.9148301 84.44388991 4.86652615 85.87483888 7.875 87.8125 C8.57238281 88.25851562 9.26976562 88.70453125 9.98828125 89.1640625 C10.50777344 89.50179687 11.02726563 89.83953125 11.5625 90.1875 C2.78596386 105.06945258 -11.59111533 112.62857186 -27.6484375 117.27734375 C-48.63826776 122.31923081 -70.45132134 119.02904551 -89 108.0625 C-104.11402047 97.98648635 -112.87673934 84.45054449 -117.4375 67.1875 C-120.42408594 50.04298449 -117.97713993 31.99399499 -108.51171875 17.171875 C-105.16990201 12.46438173 -101.73975163 8.05952646 -97.4375 4.1875 C-96.93605469 3.67058594 -96.43460938 3.15367187 -95.91796875 2.62109375 C-70.59928053 -22.03566798 -27.08874224 -20.19416778 0 0 Z " fill="#003ECF" transform="translate(629.4375,544.8125)"/>
<path d="M0 0 C-0.26260833 5.55032463 -0.52926427 11.10043507 -0.79956055 16.65039062 C-0.89082431 18.53575463 -0.98101043 20.42117114 -1.07006836 22.30664062 C-1.19877668 25.0274914 -1.33144763 27.7481255 -1.46484375 30.46875 C-1.50343002 31.30241089 -1.5420163 32.13607178 -1.58177185 32.99499512 C-1.8337694 38.04066096 -2.31398474 42.99435021 -3 48 C-10.08254317 50.56792219 -17.16685625 53.13091319 -24.25244141 55.69042969 C-26.66431387 56.56233183 -29.07577384 57.43537589 -31.48681641 58.30957031 C-34.94586956 59.5635304 -38.40636946 60.81342046 -41.8671875 62.0625 C-42.95055389 62.45622803 -44.03392029 62.84995605 -45.15011597 63.25561523 C-46.1510025 63.61598877 -47.15188904 63.9763623 -48.18310547 64.34765625 C-49.06690887 64.66742432 -49.95071228 64.98719238 -50.86129761 65.31665039 C-53 66 -53 66 -55 66 C-55.34224609 66.79277344 -55.34224609 66.79277344 -55.69140625 67.6015625 C-57.43558872 70.7983626 -59.66675072 73.54442611 -61.9375 76.375 C-62.93629186 77.6327379 -63.93498711 78.89055253 -64.93359375 80.1484375 C-65.44390137 80.7887793 -65.95420898 81.42912109 -66.47998047 82.08886719 C-68.83383516 85.04838767 -71.16642054 88.0244865 -73.5 91 C-74.41655148 92.16675716 -75.3332185 93.33342357 -76.25 94.5 C-76.70375 95.0775 -77.1575 95.655 -77.625 96.25 C-114.75 143.5 -114.75 143.5 -116.12597656 145.2512207 C-117.03941679 146.41379575 -117.95282842 147.57639328 -118.86621094 148.73901367 C-121.20700377 151.71847036 -123.54834581 154.69749287 -125.890625 157.67578125 C-130.94486408 164.10346418 -135.99054491 170.53729002 -141 177 C-141 172.79768248 -138.8318638 170.17357733 -136.625 166.75 C-136.17020264 166.03400635 -135.71540527 165.3180127 -135.24682617 164.58032227 C-131.92839982 159.38021361 -128.5281774 154.23604388 -125.08862305 149.11547852 C-121.32181409 143.50501748 -117.62471758 137.85052592 -113.9375 132.1875 C-112.98979736 130.73259155 -112.98979736 130.73259155 -112.02294922 129.24829102 C-110.7000785 127.21719847 -109.37732736 125.18602804 -108.0546875 123.15478516 C-104.51896534 117.72600643 -100.97949827 112.29968569 -97.4375 106.875 C-96.80255615 105.90071045 -96.1676123 104.9264209 -95.51342773 103.92260742 C-94.86833252 102.93494385 -94.2232373 101.94728027 -93.55859375 100.9296875 C-92.87990234 99.85904053 -92.20121094 98.78839355 -91.50195312 97.68530273 C-89.63213399 94.82359989 -87.56388118 92.19982923 -85.40429688 89.55102539 C-73.78917194 74.73662423 -73.10081004 62.07547 -73.625 43.6875 C-73.64706739 41.08533312 -73.66273229 38.48310377 -73.671875 35.88085938 C-73.707658 29.58461227 -73.82164017 23.29374076 -74 17 C-60.80494848 13.29403499 -47.45702641 10.23536844 -34.10742188 7.14404297 C-31.51381651 6.54291747 -28.92064239 5.94024245 -26.328125 5.33447266 C-22.55807623 4.45394294 -18.78702046 3.57786651 -15.015625 2.703125 C-13.85323303 2.43131409 -12.69084106 2.15950317 -11.4932251 1.87945557 C-10.42070496 1.63209656 -9.34818481 1.38473755 -8.24316406 1.12988281 C-7.30023499 0.91100403 -6.35730591 0.69212524 -5.38580322 0.46661377 C-3 0 -3 0 0 0 Z " fill="#003ECF" transform="translate(955,252)"/>
<path d="M0 0 C-0.58112277 11.24407513 -1.77121478 22.36815936 -3.15673828 33.53881836 C-3.50496997 36.3526592 -3.84463971 39.1674499 -4.18359375 41.98242188 C-4.40314459 43.77610309 -4.62317809 45.56972531 -4.84375 47.36328125 C-4.94482056 48.20272781 -5.04589111 49.04217438 -5.15002441 49.90705872 C-5.88487159 55.76974318 -5.88487159 55.76974318 -7 58 C-9.01593039 58.80080502 -11.07240087 59.50001591 -13.14038086 60.15478516 C-13.78104996 60.35990219 -14.42171906 60.56501923 -15.08180237 60.77635193 C-17.20719773 61.45469223 -19.33588669 62.12199268 -21.46484375 62.7890625 C-22.93854462 63.25644617 -24.41205828 63.72442049 -25.88539124 64.19296265 C-28.97674408 65.17433372 -32.06963452 66.15063924 -35.16381836 67.12304688 C-39.13537328 68.37129635 -43.10395642 69.62868335 -47.07155514 70.88944435 C-50.11530445 71.8561497 -53.160053 72.81967232 -56.20517159 73.7820549 C-57.66903107 74.24476854 -59.13269912 74.70808827 -60.59617424 75.17201614 C-62.63992936 75.81900579 -64.68486582 76.46210487 -66.73022461 77.10400391 C-67.89525009 77.47103424 -69.06027557 77.83806458 -70.26060486 78.21621704 C-73 79 -73 79 -75 79 C-74.7621841 70.02062731 -74.51919174 61.04141425 -74.26950932 52.06236362 C-74.15374785 47.8934468 -74.0397996 43.72449656 -73.92993164 39.55541992 C-73.82392347 35.53530089 -73.7132355 31.51533595 -73.59924126 27.49543571 C-73.55649021 25.95842003 -73.5154526 24.42135574 -73.4761219 22.88424873 C-73.42093091 20.73851676 -73.35976023 18.59303529 -73.29711914 16.44750977 C-73.26380997 15.22395279 -73.23050079 14.00039581 -73.19618225 12.73976135 C-73 10 -73 10 -72 9 C-69.91025903 8.63911941 -67.81017802 8.33798244 -65.70776367 8.06030273 C-64.72231819 7.92841049 -64.72231819 7.92841049 -63.71696472 7.79385376 C-61.534501 7.50289568 -59.35127798 7.21813237 -57.16796875 6.93359375 C-55.65436436 6.73353811 -54.14079975 6.53318123 -52.62727356 6.33253479 C-49.44904494 5.91213451 -46.27045005 5.49465867 -43.09155273 5.0793457 C-39.0187418 4.54711663 -34.94675614 4.00886248 -30.87501049 3.46855068 C-27.74658979 3.05389561 -24.61782702 2.6418724 -21.48894691 2.23069954 C-19.98776692 2.03321733 -18.48667633 1.83505421 -16.98567772 1.63619804 C-14.88425391 1.35831682 -12.78241319 1.08383853 -10.68041992 0.81030273 C-9.48430588 0.65343491 -8.28819183 0.49656708 -7.05583191 0.33494568 C-4 0 -4 0 0 0 Z " fill="#003ECF" transform="translate(1041,198)"/>
<path d="M0 0 C2.23120578 2.23120578 2.82758862 3.78986364 3.92919922 6.72607422 C4.30567596 7.72117004 4.68215271 8.71626587 5.07003784 9.74151611 C5.68118942 11.38153595 5.68118942 11.38153595 6.3046875 13.0546875 C6.73621124 14.19895203 7.16773499 15.34321655 7.61233521 16.52215576 C8.54793458 19.00458752 9.48160641 21.48764758 10.41210938 23.97198486 C12.63228766 29.89893015 14.8687008 35.81975633 17.10340118 41.74123764 C17.87226163 43.7790738 18.64047304 45.81715384 19.40863037 47.85525513 C24.95221954 62.5564108 30.59855961 77.2175785 36.2543335 91.87591553 C40.89228753 103.89678246 45.50848223 115.92354168 50 128 C57.69724732 128.9493008 65.34524125 129.32415469 73.09179688 129.60546875 C77.80820637 129.79451626 82.35814129 130.06382681 87 131 C86.37396941 139.65230336 85.16069077 148.196146 83.84326172 156.76416016 C83.49645356 159.02309979 83.15611551 161.28295179 82.81640625 163.54296875 C82.59673324 164.98703688 82.37669477 166.43104948 82.15625 167.875 C81.95837891 169.17179688 81.76050781 170.46859375 81.55664062 171.8046875 C81 175 81 175 80 178 C73.6834825 178.85912235 67.3662824 179.71308206 61.04858398 180.56347656 C58.89998618 180.85330628 56.7515467 181.14431225 54.60327148 181.43652344 C51.51326837 181.85662097 48.42271838 182.27246868 45.33203125 182.6875 C44.37351761 182.81874268 43.41500397 182.94998535 42.42744446 183.08520508 C41.52688828 183.20532959 40.62633209 183.3254541 39.69848633 183.44921875 C38.91016922 183.55580811 38.12185211 183.66239746 37.30964661 183.7722168 C34.8589926 184.01390651 32.46095142 184.03839625 30 184 C30.52149174 170.55100243 31.28643763 157.14034687 32.33935547 143.72167969 C32.42459473 142.60180664 32.50983398 141.48193359 32.59765625 140.328125 C32.71379272 138.85714355 32.71379272 138.85714355 32.83227539 137.35644531 C32.88762451 136.24881836 32.94297363 135.14119141 33 134 C33.04054976 133.31144015 33.08109953 132.62288031 33.12287807 131.91345501 C33.35489249 124.7932873 31.90014386 118.62527371 29.97070312 111.80493164 C29.48790138 110.0396965 29.48790138 110.0396965 28.99534607 108.23880005 C28.11804546 105.04036283 27.22968547 101.84540055 26.33633995 98.65143514 C25.40180095 95.29895546 24.48246787 91.94231208 23.56164551 88.58604431 C21.81842971 82.24065497 20.06294326 75.89873523 18.30237436 69.55814117 C15.14520353 58.18596009 12.01027236 46.80763404 8.87808752 35.42854971 C7.77894701 31.43727561 6.67479504 27.44743128 5.56638336 23.45872223 C4.71798027 20.40299943 3.87413046 17.34601792 3.02929688 14.28930664 C2.7207225 13.18436356 2.41214813 12.07942047 2.09422302 10.94099426 C1.81655594 9.93320923 1.53888885 8.92542419 1.25280762 7.88710022 C0.8877776 6.57228715 0.8877776 6.57228715 0.51537323 5.23091221 C0 3 0 3 0 0 Z " fill="#003ECF" transform="translate(966,10)"/>
<path d="M0 0 C2.47923801 -0.02685095 4.9581884 -0.04676547 7.4375 -0.0625 C8.14455078 -0.07087891 8.85160156 -0.07925781 9.58007812 -0.08789062 C11.38693559 -0.09653588 13.19387603 -0.05220011 15 0 C16.77224959 1.77224959 16.13776393 4.33786495 16.14717102 6.73840332 C16.15432632 7.98574753 16.16148163 9.23309174 16.16885376 10.51823425 C16.17169454 11.91384863 16.1744062 13.30946327 16.17700195 14.70507812 C16.18326443 16.16531029 16.18991103 17.62554085 16.19691467 19.08576965 C16.21801376 23.90091837 16.22833433 28.71606757 16.23828125 33.53125 C16.24232906 35.1916353 16.24644599 36.85202044 16.25063133 38.5124054 C16.26970944 46.32658695 16.28392518 54.140759 16.2922433 61.95495939 C16.30197386 70.94671196 16.32817187 79.93821559 16.36874419 88.92988062 C16.39906886 95.89231894 16.41372824 102.8546867 16.41702431 109.81718969 C16.4193597 113.96776195 16.42811775 118.11806916 16.45348549 122.26856995 C16.65851293 157.63135842 9.21871825 182.46414932 -14.0234375 209.6484375 C-15.99914391 211.92417035 -15.99914391 211.92417035 -17.5390625 214.2265625 C-19.58661729 217.09771475 -20.92251682 218.69745546 -24.37890625 219.66796875 C-28.25688684 219.9742772 -30.87533643 219.90239805 -33.9765625 217.4140625 C-35.47371254 215.67566554 -36.78141168 213.94181554 -38 212 C-37.34515625 211.33097656 -36.6903125 210.66195312 -36.015625 209.97265625 C-14.03169365 187.03113012 -0.73425981 162.39786014 -0.68115234 130.21362305 C-0.6718274 128.78314667 -0.66165504 127.3526756 -0.65071106 125.92221069 C-0.62368569 122.08220506 -0.60834437 118.24223551 -0.59528303 114.40216041 C-0.57953066 110.37294921 -0.55277984 106.34381047 -0.5272522 102.31465149 C-0.48067681 94.70422058 -0.44383072 87.09377571 -0.41057932 79.48327619 C-0.37220678 70.8107851 -0.32283686 62.13836716 -0.27259517 53.46593797 C-0.16959169 35.64401236 -0.08022975 17.82204196 0 0 Z " fill="#003ECF" transform="translate(1329,488)"/>
<path d="M0 0 C4.21849633 4.05260041 7.92865136 8.40794127 11.625 12.9375 C12.24181641 13.68966797 12.85863281 14.44183594 13.49414062 15.21679688 C17.66579358 20.32027718 21.7590939 25.47963115 25.80834961 30.68041992 C30.10685453 36.18216065 34.54964157 41.56132915 38.99975586 46.94067383 C42.83996191 51.58401143 46.63722537 56.25709955 50.37890625 60.98046875 C51.88327323 62.85458375 53.43154178 64.67954572 55 66.5 C57 69 57 69 57 71 C57.83015625 71.1959375 58.6603125 71.391875 59.515625 71.59375 C73.45939243 74.97759314 87.22059556 79.0090848 101 83 C102.28637874 87.33797466 101.65004353 91.22138693 101.0390625 95.6328125 C100.929039 96.46585907 100.8190155 97.29890564 100.70565796 98.15719604 C100.4720358 99.91435507 100.23477929 101.67103421 99.99414062 103.42724609 C99.62554789 106.12099588 99.26888821 108.81612457 98.9140625 111.51171875 C98.68559572 113.21884381 98.45645226 114.92587848 98.2265625 116.6328125 C98.11921783 117.44114532 98.01187317 118.24947815 97.90127563 119.08230591 C97.11616633 124.76766735 97.11616633 124.76766735 96 127 C92.14527773 126.71541398 88.29136576 126.42094155 84.4375 126.125 C83.37080078 126.04636719 82.30410156 125.96773438 81.20507812 125.88671875 C72.75065796 125.2305548 64.39345262 124.18916365 56 123 C56.11408203 122.13125244 56.22816406 121.26250488 56.34570312 120.36743164 C58.90268525 98.60298459 57.15995738 85.5679201 43.13183594 67.75927734 C39.97785422 63.67701654 37.2529671 59.35773373 34.5 55 C33.45129433 53.38666975 32.40047925 51.77470889 31.34765625 50.1640625 C26.82138286 43.20119288 22.36902514 36.19091631 17.90625 29.18725586 C13.19791467 21.8178621 8.39547676 14.51881372 3.45288086 7.30419922 C0 2.21248834 0 2.21248834 0 0 Z " fill="#003ECF" transform="translate(970,6)"/>
<path d="M0 0 C1.36125 0.7425 1.36125 0.7425 2.75 1.5 C1.87026509 7.06506464 -0.09451383 11.59738317 -4.25 15.5 C-6.82183795 15.95593685 -9.00810505 15.74929521 -11.60546875 15.5234375 C-17.59163318 15.47038434 -22.27720368 18.76005833 -26.6328125 22.6015625 C-42.50862267 39.12316833 -43.30702936 57.37253346 -43.56640625 79.01171875 C-43.58703023 80.47573866 -43.60802789 81.93975334 -43.62937927 83.40376282 C-43.68403894 87.21926591 -43.73369064 91.03481759 -43.78222656 94.85040283 C-43.83285678 98.75903544 -43.88832398 102.66759925 -43.94335938 106.57617188 C-44.05025248 114.21739077 -44.15139604 121.85866882 -44.25 129.5 C-49.53 129.5 -54.81 129.5 -60.25 129.5 C-60.31805686 119.66770341 -60.37297722 109.83556592 -60.40543652 100.00308609 C-60.42102345 95.43637518 -60.44213267 90.86983522 -60.47631836 86.30322266 C-60.50916263 81.88764541 -60.5269053 77.47223152 -60.53463173 73.05654144 C-60.54013062 71.38061709 -60.55086722 69.70470062 -60.56719017 68.02884674 C-60.68624551 55.28683442 -59.60217697 43.92513892 -53.5625 32.4375 C-53.21364746 31.76267578 -52.86479492 31.08785156 -52.50537109 30.39257812 C-43.3531165 13.11548864 -21.95080889 -9.53600714 0 0 Z " fill="#003ECF" transform="translate(1225.25,534.5)"/>
<path d="M0 0 C-1.09886824 5.28444501 -3.30649884 10.03679085 -7 14 C-9.60503114 14.542528 -11.7105739 14.31646629 -14.3515625 14.05078125 C-20.85407102 13.92610188 -26.48562085 18.22400136 -31.125 22.4375 C-38.18090724 30.00969313 -43.67900873 39.68738624 -45 50 C-45.17007568 51.24193115 -45.34015137 52.4838623 -45.51538086 53.76342773 C-46.28543252 60.80740235 -46.23598654 67.89476476 -46.31640625 74.97265625 C-46.33701543 76.50679534 -46.35801282 78.04092926 -46.37937927 79.57505798 C-46.43419118 83.58458225 -46.48377816 87.59415423 -46.53222656 91.60375977 C-46.58274293 95.70658541 -46.6382706 99.80934302 -46.69335938 103.91210938 C-46.80043978 111.94134991 -46.90152892 119.97064926 -47 128 C-52.28 128 -57.56 128 -63 128 C-63.11359263 117.95876135 -63.20505369 107.91795917 -63.25906086 97.87621975 C-63.28499988 93.21191201 -63.32010548 88.54807191 -63.37719727 83.8840332 C-63.43208418 79.3711554 -63.46153807 74.85872338 -63.47438622 70.34553719 C-63.48352562 68.63576312 -63.50136836 66.92600957 -63.52865028 65.21642876 C-63.83314313 45.31908421 -57.71941919 25.92102616 -43.62109375 11.28515625 C-31.59773274 0.80279233 -15.6129238 -8.51614025 0 0 Z " fill="#003ECF" transform="translate(506,536)"/>
<path d="" fill="#0040D0" transform="translate(0,0)"/>
<path d="" fill="#0046D1" transform="translate(0,0)"/>
<path d="" fill="#003ECF" transform="translate(0,0)"/>
<path d="" fill="#0044D1" transform="translate(0,0)"/>
<path d="" fill="#0044D2" transform="translate(0,0)"/>
<path d="" fill="#0046D2" transform="translate(0,0)"/>
<path d="" fill="#0040CE" transform="translate(0,0)"/>
<path d="" fill="#004DD3" transform="translate(0,0)"/>
<path d="" fill="#004BD2" transform="translate(0,0)"/>
<path d="" fill="#0045D3" transform="translate(0,0)"/>
<path d="" fill="#0042D0" transform="translate(0,0)"/>
<path d="" fill="#003ECF" transform="translate(0,0)"/>
<path d="" fill="#003ECF" transform="translate(0,0)"/>
<path d="" fill="#003ECF" transform="translate(0,0)"/>
<path d="" fill="#004CD3" transform="translate(0,0)"/>
<path d="" fill="#0040D1" transform="translate(0,0)"/>
</svg>
